<mxfile host="app.diagrams.net" modified="2022-06-01T05:07:28.937Z" agent="5.0 (Windows NT 10.0; Win64; x64) AppleWebKit/537.36 (KHTML, like Gecko) Chrome/101.0.4951.64 Safari/537.36 Edg/101.0.1210.53" etag="_U98QnXlfKiaAuPjeMWa" version="18.1.3" type="github">
  <diagram id="o9Ja1an5dL6dh2Lvcu4c" name="Page-1">
    <mxGraphModel dx="1038" dy="579" grid="1" gridSize="10" guides="1" tooltips="1" connect="1" arrows="1" fold="1" page="1" pageScale="1" pageWidth="827" pageHeight="1169" math="0" shadow="0">
      <root>
        <mxCell id="0" />
        <mxCell id="1" parent="0" />
        <mxCell id="bRjQeI7XWbLKrkH4t1YK-2" value="" style="endArrow=classic;html=1;rounded=0;" edge="1" parent="1">
          <mxGeometry width="50" height="50" relative="1" as="geometry">
            <mxPoint x="280" y="320" as="sourcePoint" />
            <mxPoint x="280" y="40" as="targetPoint" />
          </mxGeometry>
        </mxCell>
        <mxCell id="bRjQeI7XWbLKrkH4t1YK-3" value="" style="endArrow=none;html=1;rounded=0;endFill=0;" edge="1" parent="1">
          <mxGeometry width="50" height="50" relative="1" as="geometry">
            <mxPoint x="280" y="320" as="sourcePoint" />
            <mxPoint x="520" y="320" as="targetPoint" />
          </mxGeometry>
        </mxCell>
        <mxCell id="bRjQeI7XWbLKrkH4t1YK-5" value="" style="rounded=0;whiteSpace=wrap;html=1;fillColor=#7EA6E0;" vertex="1" parent="1">
          <mxGeometry x="320" y="180" width="40" height="140" as="geometry" />
        </mxCell>
        <mxCell id="bRjQeI7XWbLKrkH4t1YK-6" value="" style="rounded=0;whiteSpace=wrap;html=1;fillColor=#FF6666;" vertex="1" parent="1">
          <mxGeometry x="320" y="120" width="40" height="60" as="geometry" />
        </mxCell>
        <mxCell id="bRjQeI7XWbLKrkH4t1YK-7" value="" style="endArrow=none;dashed=1;html=1;rounded=0;" edge="1" parent="1">
          <mxGeometry width="50" height="50" relative="1" as="geometry">
            <mxPoint x="280" y="120" as="sourcePoint" />
            <mxPoint x="520" y="120" as="targetPoint" />
          </mxGeometry>
        </mxCell>
        <mxCell id="bRjQeI7XWbLKrkH4t1YK-8" value="&lt;font style=&quot;font-size: 18px;&quot;&gt;limit&lt;/font&gt;" style="text;html=1;strokeColor=none;fillColor=none;align=center;verticalAlign=middle;whiteSpace=wrap;rounded=0;" vertex="1" parent="1">
          <mxGeometry x="230" y="110" width="60" height="30" as="geometry" />
        </mxCell>
        <mxCell id="bRjQeI7XWbLKrkH4t1YK-9" value="" style="rounded=0;whiteSpace=wrap;html=1;fillColor=#FF6666;" vertex="1" parent="1">
          <mxGeometry x="440" y="120" width="40" height="60" as="geometry" />
        </mxCell>
        <mxCell id="bRjQeI7XWbLKrkH4t1YK-10" value="" style="rounded=0;whiteSpace=wrap;html=1;fillColor=#7EA6E0;" vertex="1" parent="1">
          <mxGeometry x="440" y="240" width="40" height="80" as="geometry" />
        </mxCell>
        <mxCell id="bRjQeI7XWbLKrkH4t1YK-11" value="" style="rounded=0;whiteSpace=wrap;html=1;fontSize=18;fillColor=#E6FFCC;" vertex="1" parent="1">
          <mxGeometry x="440" y="180" width="40" height="60" as="geometry" />
        </mxCell>
        <mxCell id="bRjQeI7XWbLKrkH4t1YK-12" value="ram" style="text;html=1;strokeColor=none;fillColor=none;align=center;verticalAlign=middle;whiteSpace=wrap;rounded=0;fontSize=18;" vertex="1" parent="1">
          <mxGeometry x="310" y="330" width="60" height="30" as="geometry" />
        </mxCell>
        <mxCell id="bRjQeI7XWbLKrkH4t1YK-13" value="pre-paging ram" style="text;html=1;strokeColor=none;fillColor=none;align=center;verticalAlign=middle;whiteSpace=wrap;rounded=0;fontSize=18;" vertex="1" parent="1">
          <mxGeometry x="395" y="330" width="130" height="30" as="geometry" />
        </mxCell>
        <mxCell id="bRjQeI7XWbLKrkH4t1YK-14" value="&lt;font style=&quot;font-size: 14px;&quot;&gt;&lt;b&gt;memory pages&lt;/b&gt;&lt;/font&gt;" style="text;html=1;strokeColor=none;fillColor=none;align=center;verticalAlign=middle;whiteSpace=wrap;rounded=0;fontSize=18;" vertex="1" parent="1">
          <mxGeometry x="200" y="10" width="150" height="30" as="geometry" />
        </mxCell>
        <mxCell id="bRjQeI7XWbLKrkH4t1YK-15" value="" style="whiteSpace=wrap;html=1;aspect=fixed;fontSize=14;fillColor=#7EA6E0;" vertex="1" parent="1">
          <mxGeometry x="400" y="40" width="40" height="40" as="geometry" />
        </mxCell>
        <mxCell id="bRjQeI7XWbLKrkH4t1YK-16" value="" style="whiteSpace=wrap;html=1;aspect=fixed;fontSize=14;fillColor=#FF6666;" vertex="1" parent="1">
          <mxGeometry x="320" y="40" width="40" height="40" as="geometry" />
        </mxCell>
        <mxCell id="bRjQeI7XWbLKrkH4t1YK-17" value="" style="whiteSpace=wrap;html=1;aspect=fixed;fontSize=14;fillColor=#E6FFCC;" vertex="1" parent="1">
          <mxGeometry x="480" y="40" width="40" height="40" as="geometry" />
        </mxCell>
        <mxCell id="bRjQeI7XWbLKrkH4t1YK-18" value="requested" style="text;html=1;strokeColor=none;fillColor=none;align=center;verticalAlign=middle;whiteSpace=wrap;rounded=0;fontSize=14;" vertex="1" parent="1">
          <mxGeometry x="310" y="80" width="60" height="30" as="geometry" />
        </mxCell>
        <mxCell id="bRjQeI7XWbLKrkH4t1YK-19" value="active push" style="text;html=1;strokeColor=none;fillColor=none;align=center;verticalAlign=middle;whiteSpace=wrap;rounded=0;fontSize=14;" vertex="1" parent="1">
          <mxGeometry x="380" y="80" width="80" height="30" as="geometry" />
        </mxCell>
        <mxCell id="bRjQeI7XWbLKrkH4t1YK-20" value="pre-paging" style="text;html=1;strokeColor=none;fillColor=none;align=center;verticalAlign=middle;whiteSpace=wrap;rounded=0;fontSize=14;" vertex="1" parent="1">
          <mxGeometry x="465" y="80" width="70" height="30" as="geometry" />
        </mxCell>
      </root>
    </mxGraphModel>
  </diagram>
</mxfile>
